<svg width="153" height="373" viewBox="0 0 153 373" fill="none" xmlns="http://www.w3.org/2000/svg">
<path d="M73.1259 332.391C73.1259 339.038 72.0872 344.855 70.0098 349.841C67.9323 354.827 65.1624 358.982 61.7 362.306C58.2376 365.63 54.2905 368.123 49.8586 369.785C45.5652 371.446 41.1333 372.277 36.563 372.277C31.9926 372.277 27.4915 371.446 23.0596 369.785C18.7662 368.123 14.8883 365.63 11.4259 362.306C7.96352 358.982 5.1936 354.827 3.11616 349.841C1.03872 344.855 0 339.038 0 332.391V39.8869C0 33.239 1.03872 27.4222 3.11616 22.4364C5.1936 17.4505 7.96352 13.2956 11.4259 9.97171C14.8883 6.64781 18.7662 4.15487 23.0596 2.49292C27.4915 0.830969 31.9926 0 36.563 0C41.1333 0 45.5652 0.830969 49.8586 2.49292C54.2905 4.15487 58.2376 6.64781 61.7 9.97171C65.1624 13.2956 67.9323 17.4505 70.0098 22.4364C72.0872 27.4222 73.1259 33.239 73.1259 39.8869V332.391ZM46.5347 39.8869C46.5347 34.901 45.496 31.1616 43.4185 28.6687C41.3411 26.1758 39.0559 24.9293 36.563 24.9293C34.07 24.9293 31.7848 26.1758 29.7074 28.6687C27.63 31.1616 26.5912 34.901 26.5912 39.8869V332.391C26.5912 337.376 27.63 341.116 29.7074 343.609C31.7848 346.102 34.07 347.348 36.563 347.348C39.0559 347.348 41.3411 346.102 43.4185 343.609C45.496 341.116 46.5347 337.376 46.5347 332.391V39.8869Z" fill="#F4AE3F" fill-opacity="0.3"/>
<path d="M86.4215 345.686H106.365V26.5912H86.4215V6.6478H132.956V345.686H152.9V365.63H86.4215V345.686Z" fill="#F4AE3F" fill-opacity="0.3"/>
</svg>
