<svg width="161" height="374" viewBox="0 0 161 374" fill="none" xmlns="http://www.w3.org/2000/svg">
<path d="M73.3476 333.398C73.3476 340.066 72.3057 345.901 70.222 350.902C68.1383 355.903 65.3599 360.07 61.887 363.404C58.4141 366.738 54.455 369.239 50.0097 370.906C45.7033 372.573 41.258 373.406 36.6738 373.406C32.0896 373.406 27.5748 372.573 23.1295 370.906C18.8231 369.239 14.9335 366.738 11.4606 363.404C7.98767 360.07 5.20935 355.903 3.12561 350.902C1.04187 345.901 0 340.066 0 333.398V40.0078C0 33.3398 1.04187 27.5054 3.12561 22.5044C5.20935 17.5034 7.98767 13.3359 11.4606 10.0019C14.9335 6.66796 18.8231 4.16748 23.1295 2.50049C27.5748 0.833497 32.0896 0 36.6738 0C41.258 0 45.7033 0.833497 50.0097 2.50049C54.455 4.16748 58.4141 6.66796 61.887 10.0019C65.3599 13.3359 68.1383 17.5034 70.222 22.5044C72.3057 27.5054 73.3476 33.3398 73.3476 40.0078V333.398ZM46.6758 40.0078C46.6758 35.0068 45.6339 31.2561 43.5501 28.7556C41.4664 26.2551 39.1743 25.0049 36.6738 25.0049C34.1733 25.0049 31.8812 26.2551 29.7975 28.7556C27.7137 31.2561 26.6719 35.0068 26.6719 40.0078V333.398C26.6719 338.399 27.7137 342.15 29.7975 344.65C31.8812 347.151 34.1733 348.401 36.6738 348.401C39.1743 348.401 41.4664 347.151 43.5501 344.65C45.6339 342.15 46.6758 338.399 46.6758 333.398V40.0078Z" fill="#F4AE3F" fill-opacity="0.3"/>
<path d="M86.6835 40.0078C86.6835 31.1172 88.4894 23.7546 92.1013 17.9202C95.7131 11.9468 100.228 7.50146 105.646 4.58423C111.063 1.52808 116.967 0 123.357 0C129.747 0 135.651 1.52808 141.069 4.58423C146.487 7.50146 151.002 11.9468 154.613 17.9202C158.225 23.7546 160.031 31.1172 160.031 40.0078C160.031 44.1753 159.962 47.4398 159.823 49.8014C159.823 52.1629 159.614 54.7329 159.198 57.5112C158.781 60.2895 158.156 63.9013 157.322 68.3466C156.489 72.792 155.308 79.1821 153.78 87.517C152.252 95.7131 150.307 106.41 147.945 119.607C145.723 132.804 143.014 149.682 139.819 170.241C136.624 190.662 132.804 215.32 128.358 244.214C124.052 273.109 119.051 307.282 113.355 346.734H160.031V366.738H86.6835C92.6569 324.924 97.9357 288.528 102.52 257.55C107.104 226.572 111.063 199.9 114.397 177.535C117.731 155.169 120.51 136.624 122.732 121.899C124.955 107.035 126.761 94.949 128.15 85.6417C129.539 76.3343 130.581 69.1801 131.276 64.1792C131.97 59.1782 132.456 55.2885 132.734 52.5102C133.151 49.7319 133.359 47.5787 133.359 46.0506V40.0078C133.359 33.3398 132.317 28.3388 130.234 25.0049C128.15 21.6709 125.858 20.0039 123.357 20.0039C120.857 20.0039 118.565 21.6709 116.481 25.0049C114.397 28.3388 113.355 33.3398 113.355 40.0078V100.019H86.6835V40.0078Z" fill="#F4AE3F" fill-opacity="0.3"/>
</svg>
