<svg width="161" height="374" viewBox="0 0 161 374" fill="none" xmlns="http://www.w3.org/2000/svg">
<path d="M73.3476 333.398C73.3476 340.066 72.3057 345.901 70.222 350.902C68.1383 355.903 65.3599 360.07 61.887 363.404C58.4141 366.738 54.455 369.239 50.0097 370.906C45.7033 372.573 41.258 373.406 36.6738 373.406C32.0896 373.406 27.5748 372.573 23.1295 370.906C18.8231 369.239 14.9335 366.738 11.4606 363.404C7.98767 360.07 5.20935 355.903 3.12561 350.902C1.04187 345.901 0 340.066 0 333.398V40.0078C0 33.3398 1.04187 27.5054 3.12561 22.5044C5.20935 17.5034 7.98767 13.3359 11.4606 10.0019C14.9335 6.66796 18.8231 4.16748 23.1295 2.50049C27.5748 0.833497 32.0896 0 36.6738 0C41.258 0 45.7033 0.833497 50.0097 2.50049C54.455 4.16748 58.4141 6.66796 61.887 10.0019C65.3599 13.3359 68.1383 17.5034 70.222 22.5044C72.3057 27.5054 73.3476 33.3398 73.3476 40.0078V333.398ZM46.6758 40.0078C46.6758 35.0068 45.6339 31.2561 43.5501 28.7556C41.4664 26.2551 39.1743 25.0049 36.6738 25.0049C34.1733 25.0049 31.8812 26.2551 29.7975 28.7556C27.7137 31.2561 26.6719 35.0068 26.6719 40.0078V333.398C26.6719 338.399 27.7137 342.15 29.7975 344.65C31.8812 347.151 34.1733 348.401 36.6738 348.401C39.1743 348.401 41.4664 347.151 43.5501 344.65C45.6339 342.15 46.6758 338.399 46.6758 333.398V40.0078Z" fill="#F4AE3F" fill-opacity="0.3"/>
<path d="M86.6835 40.0078C86.6835 33.3398 87.7254 27.5054 89.8092 22.5044C91.8929 17.5034 94.6712 13.3359 98.1441 10.0019C101.617 6.66796 105.507 4.16748 109.813 2.50049C114.258 0.833497 118.773 0 123.357 0C127.942 0 132.387 0.833497 136.693 2.50049C141.139 4.16748 145.098 6.66796 148.571 10.0019C152.043 13.3359 154.822 17.5034 156.906 22.5044C158.989 27.5054 160.031 33.3398 160.031 40.0078V153.363C160.031 155.03 159.892 157.044 159.614 159.406C159.475 161.768 158.781 164.199 157.531 166.699C156.28 169.2 154.266 171.631 151.488 173.992C148.848 176.354 145.028 178.368 140.027 180.035C145.028 181.702 148.848 183.716 151.488 186.078C154.266 188.439 156.28 190.87 157.531 193.371C158.781 195.871 159.475 198.302 159.614 200.664C159.892 203.026 160.031 205.04 160.031 206.707V333.398C160.031 340.066 158.989 345.901 156.906 350.902C154.822 355.903 152.043 360.07 148.571 363.404C145.098 366.738 141.139 369.239 136.693 370.906C132.387 372.573 127.942 373.406 123.357 373.406C118.773 373.406 114.258 372.573 109.813 370.906C105.507 369.239 101.617 366.738 98.1441 363.404C94.6712 360.07 91.8929 355.903 89.8092 350.902C87.7254 345.901 86.6835 340.066 86.6835 333.398V240.047H113.355V333.398C113.355 340.066 114.397 345.067 116.481 348.401C118.565 351.735 120.857 353.402 123.357 353.402C125.858 353.402 128.15 351.735 130.234 348.401C132.317 345.067 133.359 340.066 133.359 333.398V206.707C133.359 203.373 132.943 200.803 132.109 198.997C131.414 197.191 130.442 195.871 129.192 195.038C127.942 194.204 126.483 193.718 124.816 193.579C123.288 193.44 121.69 193.371 120.023 193.371H106.687V166.699H120.023C121.69 166.699 123.288 166.63 124.816 166.491C126.483 166.352 127.942 165.866 129.192 165.032C130.442 164.199 131.414 162.879 132.109 161.073C132.943 159.128 133.359 156.489 133.359 153.155V40.0078C133.359 33.3398 132.317 28.3388 130.234 25.0049C128.15 21.6709 125.858 20.0039 123.357 20.0039C120.857 20.0039 118.565 21.6709 116.481 25.0049C114.397 28.3388 113.355 33.3398 113.355 40.0078V126.691H86.6835V40.0078Z" fill="#F4AE3F" fill-opacity="0.3"/>
</svg>
