<svg width="161" height="374" viewBox="0 0 161 374" fill="none" xmlns="http://www.w3.org/2000/svg">
<path d="M73.3476 333.398C73.3476 340.066 72.3057 345.901 70.222 350.902C68.1383 355.903 65.3599 360.07 61.887 363.404C58.4141 366.738 54.455 369.239 50.0097 370.906C45.7033 372.573 41.258 373.406 36.6738 373.406C32.0896 373.406 27.5748 372.573 23.1295 370.906C18.8231 369.239 14.9335 366.738 11.4606 363.404C7.98767 360.07 5.20935 355.903 3.12561 350.902C1.04187 345.901 0 340.066 0 333.398V40.0078C0 33.3398 1.04187 27.5054 3.12561 22.5044C5.20935 17.5034 7.98767 13.3359 11.4606 10.0019C14.9335 6.66796 18.8231 4.16748 23.1295 2.50049C27.5748 0.833497 32.0896 0 36.6738 0C41.258 0 45.7033 0.833497 50.0097 2.50049C54.455 4.16748 58.4141 6.66796 61.887 10.0019C65.3599 13.3359 68.1383 17.5034 70.222 22.5044C72.3057 27.5054 73.3476 33.3398 73.3476 40.0078V333.398ZM46.6758 40.0078C46.6758 35.0068 45.6339 31.2561 43.5501 28.7556C41.4664 26.2551 39.1743 25.0049 36.6738 25.0049C34.1733 25.0049 31.8812 26.2551 29.7975 28.7556C27.7137 31.2561 26.6719 35.0068 26.6719 40.0078V333.398C26.6719 338.399 27.7137 342.15 29.7975 344.65C31.8812 347.151 34.1733 348.401 36.6738 348.401C39.1743 348.401 41.4664 347.151 43.5501 344.65C45.6339 342.15 46.6758 338.399 46.6758 333.398V40.0078Z" fill="#F4AE3F" fill-opacity="0.3"/>
<path d="M160.031 133.359V366.738H133.359V293.39H86.6835L100.019 6.66796H126.691L113.355 268.802H133.359V133.359H160.031Z" fill="#F4AE3F" fill-opacity="0.3"/>
</svg>
