<svg width="100" height="98" viewBox="0 0 100 98" fill="none" xmlns="http://www.w3.org/2000/svg">
<path d="M49.9938 0.0405121C22.3875 0.0405121 0 22.5155 0 50.2405C0 72.4155 14.325 91.228 34.2 97.8718C36.7 98.3343 37.6125 96.7843 37.6125 95.453C37.6125 94.2593 37.5687 91.103 37.5437 86.9155C23.6375 89.9468 20.7 80.1843 20.7 80.1843C18.4313 74.3843 15.15 72.8405 15.15 72.8405C10.6063 69.728 15.4875 69.7905 15.4875 69.7905C20.5062 70.1468 23.1438 74.9655 23.1438 74.9655C27.6063 82.6343 34.85 80.4218 37.7 79.1343C38.15 75.8905 39.4437 73.678 40.875 72.4218C29.775 71.153 18.1 66.8468 18.1 47.6155C18.1 42.1343 20.05 37.653 23.25 34.1405C22.7313 32.8718 21.0188 27.7655 23.7375 20.8593C23.7375 20.8593 27.9375 19.5093 37.4875 26.003C41.475 24.8905 45.75 24.3343 50.0063 24.3155C54.25 24.3405 58.5312 24.8905 62.525 26.0093C72.0687 19.5155 76.2625 20.8655 76.2625 20.8655C78.9875 27.778 77.275 32.878 76.7625 34.1468C79.9687 37.6593 81.9 42.1405 81.9 47.6218C81.9 66.903 70.2125 71.1468 59.075 72.3905C60.8687 73.9405 62.4687 77.003 62.4687 81.6843C62.4687 88.3968 62.4062 93.8093 62.4062 95.453C62.4062 96.7968 63.3062 98.3593 65.8437 97.8655C85.6875 91.2155 100 72.4093 100 50.2405C100 22.5155 77.6125 0.0405121 49.9938 0.0405121Z" fill="#F4AE3F"/>
</svg>
