<svg width="100" height="100" viewBox="0 0 100 100" fill="none" xmlns="http://www.w3.org/2000/svg">
<path fill-rule="evenodd" clip-rule="evenodd" d="M50 100C77.6142 100 100 77.6142 100 50C100 22.3858 77.6142 0 50 0C22.3858 0 0 22.3858 0 50C0 77.6142 22.3858 100 50 100ZM18.7812 31.25C18.7812 27.8125 21.5625 25 25 25H75C78.4375 25 81.25 27.8125 81.25 31.25V68.75C81.25 72.1875 78.4375 75 75 75H25C21.5625 75 18.75 72.1875 18.75 68.75L18.7812 31.25ZM50 53.125L75 37.5V31.25L50 46.875L25 31.25V37.5L50 53.125Z" fill="#F4AE3F"/>
</svg>
